<svg xmlns="http://www.w3.org/2000/svg" version="1.1" xmlns:xlink="http://www.w3.org/1999/xlink" xmlns:svgjs="http://svgjs.dev/svgjs" viewBox="0 0 800 800"><defs><filter id="uuunion-blur" x="-100%" y="-100%" width="400%" height="400%" color-interpolation-filters="sRGB">
        <feGaussianBlur in="SourceGraphic" stdDeviation="7.5 0" result="blur"></feGaussianBlur>
        <feDropShadow stdDeviation="12.307692307692308" in="blur" dx="10" dy="10" flood-color="hsl(332, 87%, 70%)" flood-opacity="0.25" x="0%" y="0%" width="100%" height="100%"></feDropShadow>
      </filter><filter id="uuunion-blur2" x="-100%" y="-100%" width="400%" height="400%" color-interpolation-filters="sRGB">
        <feGaussianBlur in="SourceGraphic" stdDeviation="7.5 0" result="blur"></feGaussianBlur>
        <feDropShadow stdDeviation="12.307692307692308" in="blur" dx="-10" dy="-10" flood-color="hsl(332, 87%, 70%)" flood-opacity="0.25" x="0%" y="0%" width="100%" height="100%"></feDropShadow>
      </filter><linearGradient gradientTransform="rotate(0, 0.5, 0.5)" x1="50%" y1="0%" x2="50%" y2="100%" id="uuunion-grad"><stop stop-color="hsl(184, 74%, 44%)" offset="10%"></stop><stop stop-color="hsl(332, 87%, 70%)" offset="90%"></stop></linearGradient><linearGradient gradientTransform="rotate(135, 0.5, 0.5)" x1="50%" y1="0%" x2="50%" y2="100%" id="uuunion-grad2"><stop stop-color="hsl(184, 74%, 44%)" offset="25%"></stop><stop stop-color="hsl(332, 87%, 70%)" offset="100%"></stop></linearGradient><linearGradient gradientTransform="rotate(333, 0.5, 0.5)" x1="50%" y1="0%" x2="50%" y2="100%" id="uuunion-grad3"><stop stop-color="hsl(184, 74%, 44%)" offset="0%"></stop><stop stop-color="hsl(332, 87%, 70%)" offset="75%"></stop></linearGradient></defs><path d="M-78.94 -77.39Q-64.32 -75.48 -49.7 -73.82 -35.07 -72.52 -20.45 -71.63 -5.83 -71.22 8.79 -71.31 23.41 -71.88 38.03 -72.91 52.65 -74.34 67.28 -76.09 81.9 -78.06 96.52 -80.14 111.14 -82.21 125.77 -84.16 140.39 -85.87 155.01 -87.25 169.63 -88.22 184.26 -88.73 198.88 -88.74 213.5 -88.26 228.12 -87.31 242.75 -85.96 257.37 -84.26 271.99 -82.32 286.62 -80.26 301.24 -78.18 315.86 -76.2 330.48 -74.43 345.11 -72.98 359.73 -71.92 374.35 -71.32 388.97 -71.21 403.6 -71.6 418.22 -72.46 432.84 -73.74 447.46 -75.38 462.09 -77.27 476.71 -79.33 491.33 -81.41 505.96 -83.42 520.58 -85.24 535.2 -86.76 549.82 -87.89 564.45 -88.59 579.07 -88.79 593.69 -88.5 608.31 -87.74 622.94 -86.53 637.56 -84.95 652.18 -83.1 666.8 -81.07 681.43 -78.98 696.05 -76.95 710.67 -75.09 725.3 -73.5 739.92 -72.28 754.54 -71.5 769.16 -71.2 783.79 -71.39 798.41 -72.07 813.03 -73.19 827.65 -74.7 842.28 -76.51 856.9 -78.52 855.94 -63.48 857.87 -48.44 862.47 -33.4 869.19 -18.36 877.2 -3.33 885.55 11.7 893.23 26.74 899.32 41.78 903.08 56.81 904.06 71.85 902.14 86.89 897.55 101.93 890.85 116.97 882.84 132 874.49 147.04 866.8 162.08 860.7 177.12 856.93 192.16 855.93 207.19 857.83 222.23 862.41 237.27 869.1 252.31 877.1 267.34 885.45 282.38 893.15 297.42 899.26 312.46 903.05 327.5 904.06 342.53 902.18 357.57 897.62 372.61 890.94 387.65 882.94 402.68 874.59 417.72 866.88 432.76 860.76 447.8 856.96 462.84 855.93 477.87 857.8 492.91 862.34 507.95 869.01 522.99 877 538.03 885.36 553.06 893.06 568.1 899.2 583.14 903.02 598.18 904.07 613.21 902.21 628.25 897.69 643.29 891.03 658.33 883.04 673.37 874.68 688.4 866.97 703.44 860.82 718.48 856.99 733.52 855.92 748.55 857.76 763.59 862.27 778.63 868.92 793.67 876.9 808.71 885.26 823.74 892.98 838.78 899.14 853.82 902.99 868.86 904.07 883.9 888.68 889.18 873.28 893.94 857.89 897.92 842.5 900.89 827.1 902.68 811.71 903.19 796.32 902.39 780.92 900.32 765.53 897.11 750.14 892.94 734.74 888.03 719.35 882.67 703.96 877.16 688.56 871.81 673.17 866.92 657.78 862.77 642.38 859.59 626.99 857.56 611.6 856.8 596.2 857.35 580.81 859.17 565.42 862.17 550.02 866.18 534.63 870.96 519.24 876.26 503.84 881.76 488.45 887.17 473.06 892.17 457.66 896.48 442.27 899.87 426.88 902.13 411.48 903.14 396.09 902.85 380.7 901.27 365.3 898.49 349.91 894.66 334.52 890.01 319.12 884.79 303.73 879.3 288.34 873.85 272.94 868.75 257.55 864.28 242.16 860.7 226.76 858.21 211.37 856.94 195.98 856.98 180.58 858.31 165.19 860.87 149.8 864.51 134.4 869.02 119.01 874.15 103.62 879.61 88.22 885.09 72.83 890.29 57.44 894.9 42.04 898.67 26.65 901.39 11.26 902.9 -4.13 903.12 -19.52 902.04 -34.91 899.71 -50.31 896.26 -65.7 891.9 -81.09 886.87 -81.04 871.81 -80.87 856.74 -80.59 841.67 -80.24 826.61 -79.85 811.54 -79.49 796.47 -79.19 781.41 -78.98 766.34 -78.9 751.27 -78.94 736.21 -79.12 721.14 -79.4 706.07 -79.75 691.01 -80.13 675.94 -80.5 660.87 -80.8 645.81 -81.01 630.74 -81.09 615.67 -81.05 600.6 -80.87 585.54 -80.59 570.47 -80.24 555.4 -79.86 540.34 -79.49 525.27 -79.19 510.2 -78.98 495.14 -78.9 480.07 -78.94 465 -79.12 449.94 -79.4 434.87 -79.75 419.8 -80.13 404.74 -80.49 389.67 -80.8 374.6 -81.01 359.54 -81.09 344.47 -81.05 329.4 -80.87 314.34 -80.6 299.27 -80.24 284.2 -79.86 269.14 -79.5 254.07 -79.19 239 -78.98 223.94 -78.9 208.87 -78.94 193.8 -79.11 178.74 -79.39 163.67 -79.74 148.6 -80.12 133.54 -80.49 118.47 -80.8 103.4 -81.01 88.34 -81.09 73.27 -81.05 58.2 -80.88 43.14 -80.6 28.07 -80.25 13 -79.87 -2.05 -79.5 -17.12 -79.2 -32.19 -78.99 -47.25 -78.9 -62.32 -78.94 -77.39" fill="url(#uuunion-grad)"></path><path d="M-78.94 -77.39Q-78.9 -62.32 -78.99 -47.25 -79.2 -32.19 -79.5 -17.12 -79.87 -2.05 -80.25 13 -80.6 28.07 -80.88 43.14 -81.05 58.2 -81.09 73.27 -81.01 88.34 -80.8 103.4 -80.49 118.47 -80.12 133.54 -79.74 148.6 -79.39 163.67 -79.11 178.74 -78.94 193.8 -78.9 208.87 -78.98 223.94 -79.19 239 -79.5 254.07 -79.86 269.14 -80.24 284.2 -80.6 299.27 -80.87 314.34 -81.05 329.4 -81.09 344.47 -81.01 359.54 -80.8 374.6 -80.49 389.67 -80.13 404.74 -70.1 407.09 -60.07 409.27 -50.03 411.21 -40 412.88 -29.97 414.21 -19.94 415.2 -1.13 415.94 2.11 415.99 14.82 409.23 27.61 401.88 40.47 393.99 53.39 385.62 66.35 376.86 79.33 367.81 92.3 358.6 105.26 349.32 118.16 340.11 131 331.08 143.74 322.33 156.37 313.96 168.88 306.04 181.24 298.64 193.45 291.8 205.51 285.52 217.4 279.8 229.15 274.62 240.74 269.93 252.21 265.66 263.57 261.72 274.83 258.02 286.04 254.47 297.21 250.95 308.38 247.35 319.59 243.58 330.86 239.53 342.25 235.14 353.77 230.32 365.46 225.04 377.36 219.25 389.48 212.95 401.86 206.15 414.49 198.87 427.4 191.17 440.59 183.1 454.05 174.75 467.77 166.19 481.74 157.52 495.93 148.84 510.31 140.24 524.85 131.82 539.49 123.64 554.21 115.8 568.94 108.33 583.63 101.29 598.24 94.7 612.7 88.56 626.97 82.86 641 77.58 654.75 72.67 668.17 68.07 681.23 63.71 693.9 59.51 706.17 55.4 718.03 51.28 729.48 47.07 740.52 42.7 751.18 38.09 761.48 33.19 771.47 27.95 781.17 22.33 790.66 16.32 800 9.91 791.29 -7.84 784 -25.6 779.33 -43.36 778.03 -61.12 780.32 -78.88 785.83 -96.64 793.65 -114.4 802.5 -132.16 787.55 -132.14 772.6 -132.55 757.65 -133.38 742.7 -134.57 727.75 -136.07 712.8 -137.79 697.85 -139.63 682.9 -141.49 667.94 -143.26 652.99 -144.86 638.04 -146.18 623.09 -147.16 608.14 -147.74 593.19 -147.89 578.24 -147.6 563.29 -146.88 548.34 -145.78 533.39 -144.36 518.44 -142.7 503.49 -140.88 488.53 -139.02 473.58 -137.21 458.63 -135.55 443.68 -134.14 428.73 -133.06 413.78 -132.37 398.83 -132.1 383.88 -132.27 368.93 -132.87 353.98 -133.87 339.03 -135.21 324.08 -136.81 309.12 -138.6 294.17 -140.46 279.22 -142.29 264.27 -144 249.32 -145.49 234.37 -146.66 219.42 -147.47 204.47 -147.86 189.52 -147.81 174.57 -147.33 159.62 -146.44 144.67 -145.19 129.71 -143.65 114.76 -141.9 99.81 -140.05 84.86 -138.2 69.91 -136.44 54.96 -134.89 40.01 -133.62 25.06 -132.7 10.11 -132.19 -4.83 -132.12 -19.78 -132.48 -34.73 -133.27 -49.69 -134.42 -64.64 -135.89 -79.59 -137.59 -94.54 -139.42 -109.49 -141.28 -124.44 -143.07 -133.65 -131.1 -115.85 -112.35 -106.49 -103.67 -97.22 -94.93 -88.04 -86.16 -78.94 -77.39" fill="url(#uuunion-grad2)" filter="url(#uuunion-blur)"></path><path d="M802.68 415.86Q812.71 415.32 822.75 414.41 832.78 413.13 842.81 411.52 852.84 409.62 862.87 407.47 873.75 411.43 866.88 432.76 860.76 447.8 856.96 462.84 855.93 477.87 857.8 492.91 862.34 507.95 869.01 522.99 877 538.03 885.36 553.06 893.06 568.1 899.2 583.14 903.02 598.18 904.07 613.21 902.21 628.25 897.69 643.29 891.03 658.33 883.04 673.37 874.68 688.4 866.97 703.44 860.82 718.48 856.99 733.52 855.92 748.55 857.76 763.59 862.27 778.63 868.92 793.67 876.9 808.71 885.26 823.74 892.98 838.78 899.14 853.82 902.99 868.86 904.07 883.9 889.94 888.76 875.82 893.21 861.69 897.03 847.56 900.04 833.44 902.09 819.31 903.1 805.18 903.01 791.06 901.82 776.93 899.59 762.8 896.44 748.68 892.5 734.55 887.96 720.42 883.05 706.3 877.99 692.17 873.03 678.05 868.4 663.92 864.32 649.79 860.99 635.67 858.55 621.54 857.14 607.41 856.82 593.29 857.6 579.16 859.44 565.03 862.26 550.91 865.92 536.78 870.26 522.65 875.05 508.53 880.08 494.4 885.11 480.27 889.89 466.15 894.21 452.02 897.84 437.89 900.63 423.77 902.44 409.64 903.18 395.51 902.82 381.39 901.37 367.26 898.9 353.13 895.54 339.01 891.44 324.88 886.79 310.75 881.82 296.63 876.76 282.5 871.86 268.37 867.34 254.25 863.43 240.12 860.3 225.99 858.11 211.87 856.96 197.74 856.91 183.61 857.95 169.49 860.04 155.36 863.08 141.23 866.93 127.11 871.39 112.98 876.27 98.85 881.32 84.73 886.31 70.6 891 56.47 895.16 42.35 898.61 28.22 901.17 7.02 897.88 -0.11 882.89 -0.22 872.74 -0.38 862.59 -0.57 852.44 -0.78 842.29 -0.87 827.07 -0.24 822 11.99 815.22 24.15 807.61 36.25 799.23 48.29 790.16 60.31 780.52 72.33 770.45 84.35 760.11 96.42 749.64 108.54 739.23 120.75 729.03 133.06 719.2 145.48 709.87 158.04 701.16 170.75 693.16 183.61 685.93 196.62 679.51 209.78 673.88 223.08 669.03 236.52 664.89 250.07 661.36 263.72 658.35 277.43 655.71 291.18 653.3 304.95 650.97 318.68 648.57 332.36 645.94 345.94 642.95 359.39 639.46 372.68 635.39 385.78 630.64 398.66 625.17 411.3 618.95 423.69 611.99 435.81 604.33 447.66 596.02 459.24 587.15 470.56 577.84 481.63 568.19 492.48 558.37 503.14 548.49 513.64 538.71 524.01 529.16 534.32 519.98 544.6 511.26 554.9 503.11 565.28 495.59 575.79 488.74 586.48 482.58 597.4 477.1 608.59 472.27 620.1 468.01 631.96 464.25 644.19 460.88 656.81 457.79 669.84 454.85 683.28 451.93 697.12 448.89 711.35 445.61 725.93 441.99 740.83 437.91 756.01 433.31 771.42 428.12 794.84 419.08 802.68 415.86" fill="url(#uuunion-grad3)" filter="url(#uuunion-blur2)"></path></svg>